<svg width="15" height="14" viewBox="0 0 15 14" fill="none" xmlns="http://www.w3.org/2000/svg">
<path d="M7.54392 1.27131e-06C3.67044 -0.00280154 0.532833 3.12453 0.53003 6.99148C0.527226 10.8584 3.66133 13.9993 7.52828 14C11.3873 14.0007 14.53 10.8668 14.53 7.01904C14.53 3.13854 11.4083 0.00280408 7.54392 1.27131e-06ZM7.53738 12.9168C4.26222 12.9299 1.57512 10.2407 1.61342 6.94617C1.65172 3.64065 4.32435 1.03995 7.63244 1.08433C10.8994 1.128 13.506 3.83005 13.442 7.12903C13.3791 10.3787 10.7149 12.9215 7.53738 12.9168Z" fill="#1779B8"/>
<path d="M6.61002 10.7063L8.45358 10.7063L8.45358 6.11865L6.61002 6.11865L6.61002 10.7063Z" fill="#1779B8"/>
<path d="M7.53364 5.31684C8.11141 5.30657 8.55888 4.8528 8.54907 4.2867C8.5451 4.01652 8.43397 3.75899 8.24013 3.57075C8.04628 3.38251 7.7856 3.27898 7.51542 3.28295C7.24524 3.28691 6.98771 3.39804 6.79947 3.59189C6.61123 3.78573 6.5077 4.04642 6.51167 4.31659C6.52218 4.87569 6.98318 5.32689 7.53364 5.31684Z" fill="#1779B8"/>
</svg>
