<svg width="22" height="22" viewBox="0 0 22 22" fill="none" xmlns="http://www.w3.org/2000/svg">
<path d="M2.22571 2.39453H3.74681C4.69094 2.39453 5.434 3.20753 5.35532 4.14292L4.62974 12.8499C4.50735 14.2748 5.63505 15.4987 7.06873 15.4987H16.3789C17.6377 15.4987 18.7392 14.4671 18.8354 13.217L19.3075 6.6606C19.4124 5.20943 18.3109 4.02927 16.851 4.02927H5.56514" stroke="#7B7B7B" stroke-width="1.31129" stroke-miterlimit="10" stroke-linecap="round" stroke-linejoin="round"/>
<path d="M14.683 19.8788C15.2865 19.8788 15.7757 19.3896 15.7757 18.7861C15.7757 18.1826 15.2865 17.6934 14.683 17.6934C14.0794 17.6934 13.5902 18.1826 13.5902 18.7861C13.5902 19.3896 14.0794 19.8788 14.683 19.8788Z" stroke="#7B7B7B" stroke-width="1.31129" stroke-miterlimit="10" stroke-linecap="round" stroke-linejoin="round"/>
<path d="M7.68942 19.8788C8.29293 19.8788 8.78216 19.3896 8.78216 18.7861C8.78216 18.1826 8.29293 17.6934 7.68942 17.6934C7.08591 17.6934 6.59668 18.1826 6.59668 18.7861C6.59668 19.3896 7.08591 19.8788 7.68942 19.8788Z" stroke="#7B7B7B" stroke-width="1.31129" stroke-miterlimit="10" stroke-linecap="round" stroke-linejoin="round"/>
<path d="M8.34503 7.63965H18.8354" stroke="#7B7B7B" stroke-width="1.31129" stroke-miterlimit="10" stroke-linecap="round" stroke-linejoin="round"/>
</svg>
